<mxfile host="app.diagrams.net" agent="Mozilla/5.0 (Windows NT 10.0; Win64; x64) AppleWebKit/537.36 (KHTML, like Gecko) Chrome/140.0.0.0 Safari/537.36" version="28.2.3">
  <diagram name="Página-1" id="_XKtXR5OykS61txC5NqP">
    <mxGraphModel dx="827" dy="1616" grid="1" gridSize="10" guides="1" tooltips="1" connect="1" arrows="1" fold="1" page="1" pageScale="1" pageWidth="827" pageHeight="1169" math="0" shadow="0">
      <root>
        <mxCell id="0" />
        <mxCell id="1" parent="0" />
        <mxCell id="naagNXR1jr4dU8S3yyuZ-13" value="" style="rounded=0;whiteSpace=wrap;html=1;" vertex="1" parent="1">
          <mxGeometry x="200" y="80" width="240" height="200" as="geometry" />
        </mxCell>
        <UserObject label="Entorno Global" placeholders="1" name="Variable" id="naagNXR1jr4dU8S3yyuZ-10">
          <mxCell style="text;html=1;strokeColor=none;fillColor=none;align=center;verticalAlign=middle;whiteSpace=wrap;overflow=hidden;" vertex="1" parent="1">
            <mxGeometry x="280" y="60" width="90" height="20" as="geometry" />
          </mxCell>
        </UserObject>
        <mxCell id="naagNXR1jr4dU8S3yyuZ-15" value="X: 10" style="text;html=1;align=center;verticalAlign=middle;resizable=0;points=[];autosize=1;strokeColor=none;fillColor=none;" vertex="1" parent="1">
          <mxGeometry x="210" y="90" width="50" height="30" as="geometry" />
        </mxCell>
        <mxCell id="naagNXR1jr4dU8S3yyuZ-16" value="" style="rounded=0;whiteSpace=wrap;html=1;" vertex="1" parent="1">
          <mxGeometry x="240" y="160" width="110" height="80" as="geometry" />
        </mxCell>
        <mxCell id="naagNXR1jr4dU8S3yyuZ-17" value="CambiaX" style="text;html=1;align=center;verticalAlign=middle;resizable=0;points=[];autosize=1;strokeColor=none;fillColor=none;" vertex="1" parent="1">
          <mxGeometry x="260" y="138" width="70" height="30" as="geometry" />
        </mxCell>
        <mxCell id="naagNXR1jr4dU8S3yyuZ-18" value="X = X + 1&lt;div&gt;&lt;span style=&quot;background-color: transparent; color: light-dark(rgb(0, 0, 0), rgb(255, 255, 255));&quot;&gt;X: 11&lt;/span&gt;&lt;/div&gt;" style="text;html=1;align=left;verticalAlign=middle;resizable=0;points=[];autosize=1;strokeColor=none;fillColor=none;" vertex="1" parent="1">
          <mxGeometry x="355" y="163" width="70" height="40" as="geometry" />
        </mxCell>
        <mxCell id="naagNXR1jr4dU8S3yyuZ-19" value="var X = 10&lt;div&gt;def cambiaX() = {&lt;/div&gt;&lt;div&gt;&amp;nbsp; &amp;nbsp;...&lt;/div&gt;&lt;div&gt;}&lt;/div&gt;&lt;div&gt;&lt;br&gt;&lt;/div&gt;&lt;div&gt;cambiaX()&lt;/div&gt;" style="text;html=1;align=left;verticalAlign=middle;resizable=0;points=[];autosize=1;strokeColor=none;fillColor=none;" vertex="1" parent="1">
          <mxGeometry x="450" y="90" width="120" height="100" as="geometry" />
        </mxCell>
        <mxCell id="naagNXR1jr4dU8S3yyuZ-20" value="&lt;div&gt;&lt;b&gt;Paradigma Imperativo o Procedimental&lt;/b&gt;&lt;/div&gt;&lt;div&gt;&lt;br&gt;&lt;/div&gt;&lt;div&gt;En este paradigma la información es trabajada&amp;nbsp;&lt;/div&gt;&lt;div&gt;por medio de un conjunto de instrucciones a ejecutar&amp;nbsp;&lt;/div&gt;&lt;div&gt;en un orden determinado por el cambio de estados&amp;nbsp;&lt;/div&gt;&lt;div&gt;en variables declaradas en la memoria de la computadora.&lt;/div&gt;" style="text;html=1;align=left;verticalAlign=middle;resizable=0;points=[];autosize=1;strokeColor=none;fillColor=none;" vertex="1" parent="1">
          <mxGeometry x="200" y="-50" width="340" height="100" as="geometry" />
        </mxCell>
      </root>
    </mxGraphModel>
  </diagram>
</mxfile>
